<svg width="100%" height="100%" viewBox="0 0 75.635 92.285" xmlns="http://www.w3.org/2000/svg">
  <!-- White Background with Padding -->
  <rect x="-7" y="2" width="200%" height="100%" fill="#FFFFFF"/>
  
  <!-- SVG Group with Paths, centered within the rect -->
  <g id="svgGroup" stroke-linecap="round" fill-rule="evenodd" font-size="9pt" fill="#000000" style="stroke:#000000;stroke-width:0.25mm;fill:#000000">
    <!-- 'r' -->
    <path d="M 17.773 92.285 L 0 92.285 L 0 19.043 L 17.773 19.043 L 17.773 27.197 A 13.71 13.71 0 0 1 19.531 23.413 A 11.692 11.692 0 0 1 22.266 20.557 A 11.844 11.844 0 0 1 27.009 18.487 A 16.683 16.683 0 0 1 30.371 18.164 L 30.371 32.764 A 24.578 24.578 0 0 0 28.643 32.829 Q 27.106 32.938 25.244 33.228 A 34.786 34.786 0 0 0 22.778 33.699 Q 21.493 33.995 20.379 34.372 A 20.594 20.594 0 0 0 20.02 34.497 Q 18.02 35.214 17.801 36.067 A 0.849 0.849 0 0 0 17.773 36.279 L 17.773 92.285 Z"/>
    
    <!-- 'i' -->
    <path d="M 52.051 92.285 L 34.57 92.285 L 34.57 19.043 L 52.051 19.043 L 52.051 92.285 Z"/>
    
    <!-- Dot of 'i' -->
    <path d="M 52.051 14.551 L 34.57 14.551 L 34.57 0 L 52.051 0 L 52.051 14.551 Z"/>
    
    <!-- Full stop (colored red) -->
    <path d="M 75.635 92.236 L 58.154 92.236 L 58.154 77.686 L 75.635 77.686 L 75.635 92.236 Z" fill="#FF0000"/>
  </g>
</svg>
